<?xml version="1.0" encoding="utf-8"?>
<?xml-stylesheet type="text/xsl" href="rss1.xsl"?>
<rss version="2.0" xmlns:atom="http://www.w3.org/2005/Atom" xmlns:content="http://purl.org/rss/1.0/modules/content/" xmlns:dc="http://purl.org/dc/elements/1.1/" xmlns:media="http://search.yahoo.com/mrss/">
<channel>
 <title>Getty</title>
 <link>http://www.gettyimg.com/</link>
 <atom:link href="http://www.gettyimg.com/" rel="self" type="application/rss+xml" />

 
                <item>
                <title><![CDATA[【Interviews / TV shows / Others】HDTV - Tate McRae - I Want My MTV [MTV 1080i HDTV PAL MP2 + DOLBY 5.1-STRGMR]]]></title>
                <link><![CDATA[https://sharemania.us/threads/tate-mcrae-i-want-my-mtv-mtv-1080i-hdtv-pal-mp2-dolby-5-1-strgmr.246954/]]></link>
                <description><![CDATA[<article>
<blockquote class="messageText SelectQuoteContainer ugc baseHtml">
<img src="https://i.imgur.com/lbRAI8Y.png" class="bbCodeImage LbImage" alt="[​IMG]" data-url="https://i.imgur.com/lbRAI8Y.png" style=""> <br>
<br>
<div class="ToggleTriggerAnchor bbCodeSpoilerContainer">
<button type="button" class="button bbCodeSpoilerButton ToggleTrigger Tooltip JsOnly" data-target="> .SpoilerTarget"><span>Spoiler: <span class="SpoilerTitle">Mediainfo</span></span></button>
<div class="SpoilerTarget bbCodeSpoilerText">Video: MPEG4 Video (H264) 1920x1080 25fps [V: h264 high L4.0, yuv420p, 1920x1080]<br>
Audio: MPEG Audio 48000Hz stereo 256kbps [A: English [eng] (mp2, 48000 Hz, stereo, 256 kb/s)]<br>
Audio: Dolby AC3 48000Hz 6ch 384kbps [A: English [eng] (ac3, 48000 Hz, 5.1(side), 384 kb/s)]<br>
<br>
General<br>
ID : 1 (0x1)<br>
Format : MPEG-TS<br>
File size : 1.48 GiB<br>
Duration : 23 min 2 s<br>
Overall bit rate mode : Variable<br>
Overall bit rate : 9 200 kb/s<br>
Frame rate : 25.000 FPS<br>
Video<br>
ID : 256 (0x100)<br>
Menu ID : 1 (0x1)<br>
Format : AVC<br>
Format/Info : Advanced Video Codec<br>
Format profile : High@L4<br>
Format settings : CABAC / 4 Ref Frames<br>
Format settings, CABAC : Yes<br>
Format settings, Reference fra : 4 frames<br>
Codec ID : 27<br>
Duration : 23 min 2 s<br>
Bit rate : 8 099 kb/s<br>
Width : 1 920 pixels<br>
Height : 1 080 pixels<br>
Display aspect ratio : 16:9<br>
Frame rate : 25.000 FPS<br>
Standard : Component<br>
Color space : YUV<br>
Chroma subsampling : 4:2:0<br>
Bit depth : 8 bits<br>
Scan type : MBAFF<br>
Scan type, store method : Interleaved fields<br>
Scan order : Top Field First<br>
Bits/(Pixel*Frame) : 0.156<br>
Stream size : 1.30 GiB (88%)<br>
Color range : Limited<br>
Color primaries : BT.709<br>
Transfer characteristics : BT.709<br>
Matrix coefficients : BT.709<br>
Audio #1<br>
ID : 257 (0x101)<br>
Menu ID : 1 (0x1)<br>
Format : MPEG Audio<br>
Format version : Version 1<br>
Format profile : Layer 2<br>
Codec ID : 3<br>
Duration : 23 min 4 s<br>
Bit rate mode : Constant<br>
Bit rate : 256 kb/s<br>
Channel(s) : 2 channels<br>
Sampling rate : 48.0 kHz<br>
Frame rate : 41.667 FPS (1152 SPF)<br>
Compression mode : Lossy<br>
Delay relative to video : -1 s 705 ms<br>
Stream size : 42.2 MiB (3%)<br>
Language : English<br>
Audio #2<br>
ID : 258 (0x102)<br>
Menu ID : 1 (0x1)<br>
Format : AC-3<br>
Format/Info : Audio Coding 3<br>
Commercial name : Dolby Digital<br>
Codec ID : 129<br>
Duration : 23 min 4 s<br>
Bit rate mode : Constant<br>
Bit rate : 384 kb/s<br>
Channel(s) : 6 channels<br>
Channel layout : L R C LFE Ls Rs<br>
Sampling rate : 48.0 kHz<br>
Frame rate : 31.250 FPS (1536 SPF)<br>
Compression mode : Lossy<br>
Delay relative to video : -1 s 752 ms<br>
Stream size : 63.4 MiB (4%)<br>
Language : English<br>
Service kind : Complete Main<br>
Menu<br>
ID : 4096 (0x1000)<br>
Menu ID : 1 (0x1)<br>
Format : AVC / MPEG Audio / AC-3<br>
Duration : 23 min 2 s<br>
List : 256 (0x100) (AVC) / 257 (0x101) (MPEG Audio, English) / 258 (0x102) (AC-3, English)<br>
Language : / English / English<br>
Service name : Service01<br>
Service provider : FFmpeg<br>
Service type : digital television</div>
</div><br>
Download:
<div class="bbCodeBlock bbCodeVfcHH HiddenContent">
<div class="attribution type">Hidden Content:</div>
<blockquote>You must either reply or click 'Like' to see the hidden information contained here.</blockquote>
</div>
<div class="messageTextEndMarker">&nbsp;</div>
</blockquote>
</article>]]></description>
                <author><![CDATA[stargamer]]></author>
                </item>

                </channel></rss>